<svg width="1600" height="900" viewBox="0 0 1600 900" xmlns="http://www.w3.org/2000/svg">
  <defs>
    <linearGradient id="sky" x1="0" y1="0" x2="0" y2="1">
      <stop offset="0%" stop-color="#88c7d1" />
      <stop offset="100%" stop-color="#2f6b78" />
    </linearGradient>
    <linearGradient id="sea" x1="0" y1="0" x2="0" y2="1">
      <stop offset="0%" stop-color="#3f8ea1" />
      <stop offset="100%" stop-color="#1e4f5a" />
    </linearGradient>
  </defs>
  <rect width="1600" height="900" fill="url(#sky)" />
  <rect y="470" width="1600" height="430" fill="url(#sea)" />
  <ellipse cx="800" cy="560" rx="360" ry="130" fill="#457153" />
  <ellipse cx="800" cy="580" rx="290" ry="90" fill="#588362" />
  <circle cx="680" cy="510" r="46" fill="#f2a6c2" opacity="0.9" />
  <circle cx="760" cy="490" r="38" fill="#f0a0bc" opacity="0.9" />
  <circle cx="850" cy="505" r="42" fill="#f3afc8" opacity="0.88" />
  <circle cx="930" cy="520" r="40" fill="#f1a7bf" opacity="0.88" />
  <path d="M0 670C150 700 250 740 430 725C600 709 700 655 860 672C1020 688 1130 732 1320 719C1450 710 1540 680 1600 690V900H0Z" fill="#63b5c9" opacity="0.28" />
</svg>
